<svg width="25" height="25" viewBox="0 0 25 25" fill="none" xmlns="http://www.w3.org/2000/svg">
<path d="M12.5 1.5625C6.45996 1.5625 1.5625 6.45996 1.5625 12.5C1.5625 18.54 6.45996 23.4375 12.5 23.4375C18.54 23.4375 23.4375 18.54 23.4375 12.5C23.4375 6.45996 18.54 1.5625 12.5 1.5625ZM12.5 21.582C7.48535 21.582 3.41797 17.5146 3.41797 12.5C3.41797 7.48535 7.48535 3.41797 12.5 3.41797C17.5146 3.41797 21.582 7.48535 21.582 12.5C21.582 17.5146 17.5146 21.582 12.5 21.582ZM17.3438 7.22412C17.2481 7.18676 17.1461 7.16861 17.0435 7.1707C16.9408 7.17279 16.8396 7.1951 16.7456 7.23633L10.1294 10.1318L7.23633 16.748C7.14844 16.9482 7.14844 17.1753 7.23633 17.3755C7.31934 17.5659 7.47314 17.7148 7.66846 17.7905C7.76123 17.8271 7.85644 17.8442 7.9541 17.8442C8.06152 17.8442 8.1665 17.8223 8.2666 17.7783L14.8828 14.8828L17.7759 8.2666C17.8181 8.17004 17.8404 8.06596 17.8414 7.96058C17.8424 7.85521 17.8221 7.75071 17.7818 7.65336C17.7414 7.55601 17.6818 7.46782 17.6065 7.39406C17.5313 7.3203 17.4419 7.2625 17.3438 7.22412ZM14.082 13.0469L14.7217 13.6865L13.6865 14.7217L13.0469 14.082L9.27734 15.7324L10.9253 11.9629L10.3027 11.3379L11.3379 10.3027L11.9604 10.9253L15.7324 9.27734L14.082 13.0469ZM11.3379 10.3027L10.3027 11.3379L10.9253 11.9629L13.0469 14.082L13.6865 14.7217L14.7217 13.6865L14.082 13.0469L11.9629 10.9253L11.3379 10.3027Z" fill="black"/>
</svg>
