<svg width="25" height="25" viewBox="0 0 25 25" fill="none" xmlns="http://www.w3.org/2000/svg">
<g clip-path="url(#clip0_1447_3207)">
<path d="M22.9329 10.5693L13.2362 1.64837C12.921 1.35835 12.5059 1.2014 12.0776 1.21032C11.6494 1.21924 11.2412 1.39333 10.9383 1.69622L2.02017 10.6144L1.5625 11.072V24.2192H10.1562V16.0161H14.8438V24.2192H23.4375V11.0336L22.9329 10.5693ZM12.1112 2.77249C12.125 2.77249 12.1165 2.77547 12.1106 2.78128C12.1045 2.77547 12.0975 2.77249 12.1112 2.77249ZM21.875 22.6567H16.4062V16.0161C16.4062 15.6017 16.2416 15.2043 15.9486 14.9112C15.6556 14.6182 15.2582 14.4536 14.8438 14.4536H10.1562C9.74185 14.4536 9.34442 14.6182 9.0514 14.9112C8.75837 15.2043 8.59375 15.6017 8.59375 16.0161V22.6567H3.125V11.7192L12.1112 2.80105C12.1119 2.80047 12.1119 2.79993 12.1124 2.79934L21.875 11.7192V22.6567Z" fill="black"/>
<line x1="24" y1="17.5" x2="51" y2="17.5" stroke="black"/>
</g>
<defs>
<clipPath id="clip0_1447_3207">
<rect width="25" height="25" fill="white"/>
</clipPath>
</defs>
</svg>
