<svg width="25" height="25" viewBox="0 0 25 25" fill="none" xmlns="http://www.w3.org/2000/svg">
<path d="M12.4997 2.08301C6.75592 2.08301 2.08301 5.82155 2.08301 10.4163C2.08301 13.4455 4.06009 16.1622 7.29134 17.6393V22.9163L12.8538 18.7445C18.4341 18.5955 22.9163 14.9163 22.9163 10.4163C22.9163 5.82155 18.2434 2.08301 12.4997 2.08301ZM12.4997 16.6663H12.1528L9.37467 18.7497V16.232L8.70697 15.9747C5.90593 14.8966 4.16634 12.7663 4.16634 10.4163C4.16634 6.96947 7.90488 4.16634 12.4997 4.16634C17.0945 4.16634 20.833 6.96947 20.833 10.4163C20.833 13.8632 17.0945 16.6663 12.4997 16.6663Z" fill="black"/>
</svg>
